/* XPM */
static char *black__1_1681395395[] = {
/* columns rows colors chars-per-pixel */
"32 32 17 1 ",
"  c black",
". c #000100",
"X c #010101",
"o c #020200",
"O c #030200",
"+ c #030301",
"@ c #020202",
"# c gray1",
"$ c #040301",
"% c #040402",
"& c #050402",
"* c #050503",
"= c #060503",
"- c #050304",
"; c #040404",
": c gray2",
"> c #060405",
/* pixels */
"                                ",
"                                ",
"                                ",
"                           %  ; ",
":  :: ::: :::  :: ;;;;;;:::::::;",
"::::::: :  :::::::::::::::::::::",
" :: :  : : : : ::&%%%%%%%%%%%%%%",
":::: :: : : ::::&&%%%%%%%%%%%&&:",
" :: : ::::::::::%%&&%%%%%%%%%%%%",
":::::  ::  : :: %%&&%%%&%%%&%%%%",
"&&$$$$$$$$&&$$$$&&==&&&$% &&&&&&",
"&&&$$$$$$$$&$$$$&&:&&&$$%%&&&&&&",
"&&&&&$$$$$$$$$$$%&&&&&&$$$& &&&&",
"&&&&&$$$$$$$$$$$%&&&&&&$$&&&&&&&",
"$&&&&$$$$$$$$$$$&&&&&&&&&&&&&&&&",
"$&&&&$$$$$$$$$$$$& %$&&&&&&&&&&&",
"&&&&&&&&$$&  $$$ % &&&&&&&&&&&&$",
"&&&&&&&&$$&$&$$$&&%%&&&&&&&&&&&$",
"&&&&&&&&$$$$&$$$%% %&&&&&&&&&&&&",
"&&&&&&==&$$$$$$$% %%& &&&&&&&&&&",
"&&&&&**=&&$$ &&$ %%% %&%&&&&&&&&",
"&&&&&***&&&$%%&$%%% %%& &&&&&&&&",
"**&*%%%%%&&  % % % % % %$&&&&&&&",
"****&%%%&&&&%%%%%%%%%%%%$$&&&&&&",
"**&%%%%%%%%%% %%%%%%%&%& &&&&:==",
"*&%%%% %& %%%%    % %& $%& &&&&=",
"::::;;;;;;;;%;%#%%;;;;::%:::>>==",
"::&;;;%%#%;% ;## ;;; % :% ;;>>>:",
"                   %  :         ",
"                %               ",
"                 % %            ",
"                                "
};
