/* XPM */
static char *af7e24b59b1642fcc83ee3202d7c1179zZY3Ms0DcHertAEZ[] = {
/* columns rows colors chars-per-pixel */
"32 32 9 1 ",
"  c #9C5A3C",
". c #22B14C",
"X c #FFC20E",
"o c #E5AA7A",
"O c #2F3699",
"+ c #4D6DF3",
"@ c #F5E49C",
"# c #D3F9BC",
"$ c #FFF9BD",
/* pixels */
"++++++++++++++++++++++++++++++++",
"++++++++++++++++++++++++++++++++",
"++++++++++++++++++++++++++++++++",
"++++++++++++...........+++++++++",
"++++++++++++.#.####......+++++++",
"++++++...++..#.#..######...+++++",
"+++++.....+...#...########..++++",
"+++++.#....#...#.......####.++++",
"+++++.####....##..#####..##.++++",
"+++++...#.....#..##...##..#.++++",
"+++++.......##......++..#.#.++++",
"+++++..#..####...oo ++++....++++",
"+++++.##..###..oooo++++++...++++",
"+++++.##.##... oo  +++++++..++++",
"+++++.##.#..++     ++++++++.++++",
"+++++.##.#.+++     +++++++++++++",
"+++++.#..#.+++     +++++++++++++",
"+++++.#....+++     +++++++++++++",
"++++++#.#..+++     +++++++++++++",
"+++++++##..+++     +++++++++++++",
"++++++++#..+++     +++++++++++++",
"+++++++++.+++X     XXXX+++++++++",
"+++++++++++XXX      XXXXXXXOOO++",
"+++++OOOXXXXXX      X@@@XXXXXOO+",
"++++OOXXXX@XXX       X@@@XXXXXOO",
"+++OOOXXX@@XX        XX@@@XXXXOO",
"OOOOOXXX@@XX          XX@@@@XXOO",
"OOOOOOOXXXXXXXXXXXXXXXXXXXXXXOOO",
"OOOOOOOOOOXXXXXXXXXX$$X@@XOOOOOO",
"OOOOOOOOOOOOOOOOOOOOOOOOOOOOOOOO",
"OOOOOOOOOOOOOOOOOOOOOOOOOOOOOOOO",
"OOOOOOOOOOOOOOOOOOOOOOOOOOOOOOOO"
};
