/* XPM */
static char *pixil_frame_0__7_1680298926[] = {
/* columns rows colors chars-per-pixel */
"32 32 7 1 ",
"  c #9C5A3C",
". c #22B14C",
"X c #FFC20E",
"o c #2F3699",
"O c #4D6DF3",
"+ c #F5E49C",
"@ c #D3F9BC",
/* pixels */
"OOOOOOOOOOOO..@@..OOOOOOOOOOOOOO",
"OOOOOOOOOOO..@@.@@...OOOOOOOOOOO",
"OOOOOOOOOOO.@..@@..@.OOOOOOOOOOO",
"OOO.....OO.@..@@.@@@.OOOOOOOOOOO",
"O...@@@..O.@.@@........OOOOOOOOO",
"..@@@@@@@..@.@...@@@@@...OOOOOOO",
"......@@@@..@...@@@@@@@@..OOOOOO",
"@@@@@....@...@.......@@@@..OOOOO",
"@@@@@@@@....@@...@@@@..@@@.OOOOO",
"@...........@.......@@..@@.OOOOO",
"..OO............  OO..@.@@.OOOOO",
".OO..@.......     OOOO...@.OOOOO",
"OOO.@...@.       OOOOOO..@.OOOOO",
"OO..@..@@.O      OOOOOOO...OOOOO",
"OO.@@..@.OOO     OOOOOOOO..OOOOO",
"OO.@@..@.OOO     OOOOOOOOO.OOOOO",
"OO.@@..@.OOO     OOOOOOOOO.OOOOO",
"OO..@....OOO     OOOOOOOOOOOOOOO",
"OOO.@.@..OOO     OOOOOOOOOOOOOOO",
"OOO.@@@..OOO     OOOOOOOOOOOOOOO",
"OOO.@@@..OOO     OOOOOOOOOOOOOOO",
"OOO..@@..OOX     XXXXOOOOOOOOOOO",
"OOOO..@..XXX      XXXXXXXooooOOO",
"OOOoo....XXX      XXXXXXXXXoooOO",
"OOooXX...XX        X+++XXXXXoooO",
"OOooXXXXXXX        XX+++XXXXXooO",
"OooXX+++XX          XX++++XXooOO",
"OOooo+XXXX          XXXXX+XoooOO",
"OOOooo+XXXXXXXXXXXXXX++XXXoooOOO",
"OOOOooo+XX+++++++X++X++XooooOOOO",
"OOOOOoooooXXX++XX+++XoooooooOOOO",
"OOOOOOOOOOOOOOOOOOOOOOOOOOOOOOOO"
};
