/* XPM */
static char *_67ce40b3ceb443ef8960b9eea4b7743fspmU5e3ulo2EL27[] = {
/* columns rows colors chars-per-pixel */
"31 14 104 2 ",
"   c #F6F6F6",
".  c gray98",
"X  c #FDFDFF",
"o  c white",
"O  c #FEFDFF",
"+  c #F6F6F5",
"@  c #FAFAFB",
"#  c gray96",
"$  c #F4F4F3",
"%  c #E5E5E4",
"&  c #D3D5C9",
"*  c #A3AD8F",
"=  c #CBCEC2",
"-  c #F7F5FC",
";  c #E3E4E1",
":  c #F5F5F6",
">  c #F5F5F4",
",  c #F9F7FE",
"<  c #899170",
"1  c #58701B",
"2  c #536D12",
"3  c #577407",
"4  c #415615",
"5  c #566633",
"6  c #858E6B",
"7  c #EAEAEC",
"8  c #F4F4F4",
"9  c #FBFBFC",
"0  c #DDDDDB",
"q  c #637B22",
"w  c #6A8D0E",
"e  c #668916",
"r  c #3E5710",
"t  c #3D5C0A",
"y  c #5C7E0A",
"u  c #667C1E",
"i  c #A1A59B",
"p  c #F3F4F3",
"a  c #FDFBFF",
"s  c #798959",
"d  c #547320",
"f  c #517713",
"g  c #49650F",
"h  c #46630D",
"j  c #425F0C",
"k  c #436610",
"l  c #507600",
"z  c #768C49",
"x  c #F5F3FB",
"c  c #F2F2F1",
"v  c #D5D7D5",
"b  c #98A080",
"n  c #496700",
"m  c #4E7208",
"M  c #47640B",
"N  c #4A661A",
"B  c #CCCECC",
"V  c #ADB8A0",
"C  c #C5CBBC",
"Z  c #F8F7F9",
"A  c #F7F7F6",
"S  c #617438",
"D  c #7F9766",
"F  c #979470",
"G  c #4B5C00",
"H  c #6C7753",
"J  c #FFFDFF",
"K  c gray97",
"L  c #ECEDEC",
"P  c #D7D7D6",
"I  c #D6C4A7",
"U  c #896B0E",
"Y  c #ACA18F",
"T  c #FEFFFF",
"R  c #F1F1EF",
"E  c #FAF9F8",
"W  c #F9FCFF",
"Q  c #C5B89C",
"!  c #BE8C21",
"~  c #B5AC97",
"^  c #F4F3F2",
"/  c #F4F3F1",
"(  c #F5F8FF",
")  c #C0AE84",
"_  c #BF8F21",
"`  c #B2A997",
"'  c gray99",
"]  c #E8EAEE",
"[  c #BF9C4E",
"{  c #BB8F2B",
"}  c #A69D88",
"|  c #F3F5F9",
" . c #A29475",
".. c #B48721",
"X. c #876310",
"o. c #8F856F",
"O. c #F3F3F2",
"+. c #F9F9F9",
"@. c #E6E6E7",
"#. c #A49A85",
"$. c #A99F89",
"%. c #A29882",
"&. c #D7D5D1",
"*. c #F8F8F8",
/* pixels */
"                          . X o O + @ #                     # ",
"                      $ # % & * = - ; @ #                     ",
"                  : > , < 1 2 3 4 5 6 7 8 +                   ",
"                  8 9 0 q w e r t y u i o p                   ",
"                # $ a s d f g h j k l z x + #                 ",
"#               +   c v b n m M N B V C Z #                   ",
"                  # A a S D F G H o o J #                     ",
"                  # K L P o I U Y T R $                       ",
"#                   # K E W Q ! ~ T ^                         ",
"                      # / ( ) _ ` o ^                         ",
"                      8 ' ] [ { } o ^                         ",
"#                   # + |  ...X.o.o O.                        ",
"                    # +.@.#.$.%.&.9 8                         ",
"                      # *.o o o 9 >                         # "
};
