/* XPM */
static char *_1165eb38e004789c1cee1e957e88776JmIW2p8Jw8P4nCW0[] = {
/* columns rows colors chars-per-pixel */
"32 32 163 2 ",
"   c #010101",
".  c #0D0407",
"X  c #0F0506",
"o  c #08080A",
"O  c #08090B",
"+  c #0C0C0C",
"@  c #0C0C0E",
"#  c #100605",
"$  c #11060A",
"%  c #190A0D",
"&  c #0C0B10",
"*  c #0F0D10",
"=  c #0F0F11",
"-  c #111015",
";  c #131217",
":  c #141319",
">  c #131418",
",  c #16151B",
"<  c #191A1E",
"1  c #220E10",
"2  c #300F16",
"3  c #311116",
"4  c #341117",
"5  c #1C1B21",
"6  c #1B1C21",
"7  c #1C1D22",
"8  c #212129",
"9  c #24222D",
"0  c #25252D",
"q  c #292A2F",
"w  c #282832",
"e  c #292935",
"r  c #2E2F34",
"t  c #32323A",
"y  c #34343E",
"u  c #431A20",
"i  c #441920",
"p  c #461B24",
"a  c #5D242D",
"s  c #4A3039",
"d  c #662732",
"f  c #612932",
"g  c #642C37",
"h  c #642F39",
"j  c #7A2C39",
"k  c #7E2C3A",
"l  c #353541",
"z  c #383842",
"x  c #393945",
"c  c #3C3C46",
"v  c #3B3D4A",
"b  c #3D3F4C",
"n  c #3D3F4E",
"m  c #523843",
"M  c #3C404C",
"N  c #414141",
"B  c #42424A",
"V  c #40424F",
"C  c #584E4F",
"Z  c #444351",
"A  c #464553",
"S  c #474956",
"D  c #4A4A54",
"F  c #4A4C59",
"G  c #4B4D5A",
"H  c #4B4D5C",
"J  c #4F515E",
"K  c #50525F",
"L  c #614C5B",
"P  c #704D53",
"I  c #515360",
"U  c #545361",
"Y  c #535763",
"T  c #555766",
"R  c #575968",
"E  c #5A5C6B",
"W  c #5B5D6C",
"Q  c #5E606F",
"!  c #616372",
"~  c #636272",
"^  c #646675",
"/  c #666877",
"(  c #686A77",
")  c #676978",
"_  c #686A79",
"`  c #68697B",
"'  c #696B7A",
"]  c #6B6D7C",
"[  c #6F6E7E",
"{  c #8C3140",
"}  c #903240",
"|  c #923343",
" . c #943442",
".. c #953244",
"X. c #80575F",
"o. c #8A5F66",
"O. c #A55562",
"+. c #917B7E",
"@. c #707382",
"#. c #767887",
"$. c #787E8E",
"%. c #7D7E90",
"&. c #B67684",
"*. c #90808D",
"=. c #858492",
"-. c #828395",
";. c #818497",
":. c #88899D",
">. c #8A8B9F",
",. c #958794",
"<. c #A38086",
"1. c #AB919A",
"2. c #8B8EA1",
"3. c #8D90A3",
"4. c #9091A3",
"5. c #9093A6",
"6. c #9A9DA6",
"7. c #9295A8",
"8. c #9799AE",
"9. c #9A9BAF",
"0. c #999CAD",
"q. c #999CAF",
"w. c #979CB0",
"e. c #9A9BB0",
"r. c #9A9DB0",
"t. c #9A9FB4",
"y. c #A497A9",
"u. c #9FA1B7",
"i. c #A1A4AD",
"p. c #BCA1A8",
"a. c #BFA6A9",
"s. c #BDADAD",
"d. c #A2A4BA",
"f. c #A1A6BB",
"g. c #A5A7BD",
"h. c #A3A8BB",
"j. c #A4A9BE",
"k. c #A6ABBF",
"l. c #ADAABB",
"z. c #B3A9B1",
"x. c #B7B1BD",
"c. c #C2979E",
"v. c #A7ACC0",
"b. c #A8ADC1",
"n. c #ABB0C4",
"m. c #AEB0C7",
"M. c #AFB4C8",
"N. c #AFB4CA",
"B. c #B0B5CB",
"V. c #B4B5CA",
"C. c #B3B9CF",
"Z. c #B4B9CF",
"A. c #B6B8CF",
"S. c #B3B9D1",
"D. c #B4B8D1",
"F. c #B5BAD0",
"G. c #B7BCD0",
"H. c #D6C6C7",
"J. c #C7C6D8",
"K. c #E5DCDF",
"L. c #E9DFDF",
"P. c #ECE2E1",
"I. c #F4EBEC",
/* pixels */
"  O 6 7 6                                                       ",
"< Y ) _ _ G G y 5 : &                                           ",
"i.Z.C.Z.Z.] / _ _ _ ~ &                                         ",
"6.Z.V.G.Z.Z.[ _ _ _ _ _ A -                                     ",
"N J.&.P.X.Z.Z.M._ _ _ _ ) / -                                   ",
"  C O.g L.X.K.Z.m._ ) _ _ _ _ S                                 ",
"  1 ..| o.H.p.1.C.2._ _ _ _ _ _ A                               ",
"  X j ..k <.f I.y.G.2.^ 8 B W _ / c   - - - - - - &             ",
"    $ .. .d a h I.z.Z.( 8 x H Q _ _ H n n M y x x @             ",
"      u  . .a a +.3 S.M._ _ _ _ / _ _ H n M - @ @               ",
"        p { a a 3 3 s C.$.^ _ ^ _ _ _ _ D n M ;                 ",
"      X } a a u 3 3 m Z.G.C.G T / _ _ _ _ A w                   ",
"    # } ..a a 3 3 m Z.Z.Z.Z.E _ V _ _ _ _ ) >                   ",
"  % | { a a u +.L G.Z.S.Z.V j.V ^ _ _ _ _ _ V                   ",
"  P c.a.a f z.l.S.Z.G.S.Z.Z.u.8.R ^ W W M ^ ~ -                 ",
"  =.x.G.&.;.w.k.G.S.S.S.Z.Z.C.Z.K _ _ K M ! ) J                 ",
"  q >.q.q.q.q.q.q.v.S.G.C.C.C.C.K _ U n n _ _ W                 ",
"    & D / >.q.r.q.q.q.n.b.G.C.G.-.W T G / _ _ _                 ",
"            I #.4.r.e.e.r.r.M.S.G.v.d./ _ _ _ _ 9               ",
"                  ~ _ q.r.e.r.v.S.C.G.M._ _ _ _ 8               ",
"                      @ _ 5.r.q.e.G.Z.Z.M._ _ _ 9               ",
"                            & D -.e.r.u.G.b._ ) S               ",
"                                & c r.r.w.N.h.) I &             ",
"                                    r %.8.q.N.h.R ,             ",
"                                          x 7.h.G l             ",
"                                            t 7.G z 8 e = O     ",
"                                              r @.M 0 m n M e   ",
"                                                & w M M n n O   ",
"                                                  w M M n o     ",
"                                                  w M v O       ",
"                                                O x x O         ",
"                                                & r O           "
};
