/* XPM */
static char *d797fe52a485460bdf357b3350bb002dl2YGGkpJ8lwlBQKd[] = {
/* columns rows colors chars-per-pixel */
"32 32 192 2 ",
"   c #090908",
".  c gray4",
"X  c #0C0B0A",
"o  c #131211",
"O  c #141011",
"+  c #161210",
"@  c #161413",
"#  c #171514",
"$  c #191715",
"%  c #1B1917",
"&  c #1B1818",
"*  c #1A1918",
"=  c #1C1918",
"-  c #1E1C1B",
";  c #1B1A1E",
":  c #211D1A",
">  c #2E2015",
",  c #25221F",
"<  c #2C2018",
"1  c #2C251F",
"2  c #322116",
"3  c #39271A",
"4  c #1B1D20",
"5  c #282422",
"6  c #3D2D23",
"7  c #3B2F26",
"8  c #35322F",
"9  c #3A3632",
"0  c #3D3936",
"q  c #473324",
"w  c #4E3A2C",
"e  c #503523",
"r  c #503725",
"t  c #573C2A",
"y  c #4C3C31",
"u  c #473E38",
"i  c #554239",
"p  c #52473E",
"a  c #635032",
"s  c #645A35",
"d  c #79543A",
"f  c #232A4F",
"g  c #292850",
"h  c #232E58",
"j  c #273264",
"k  c #4A3C46",
"l  c #59534C",
"z  c #595553",
"x  c #605448",
"c  c #7B6944",
"v  c #505369",
"b  c #7E6575",
"n  c #906142",
"m  c #B17852",
"M  c #C37563",
"N  c #CA617B",
"B  c #9A8754",
"V  c #B29257",
"C  c #BCA454",
"Z  c #AD8565",
"A  c #B18461",
"S  c #B59D6E",
"D  c #B4A877",
"F  c #CAA75B",
"G  c #C9A85A",
"H  c #CFBA5D",
"J  c #CF8677",
"K  c #C9A762",
"L  c #CAA265",
"P  c #CDA568",
"I  c #C9A96B",
"U  c #CABB73",
"Y  c #C0B57D",
"T  c #E5AA7A",
"R  c #D6C066",
"E  c #DDCA66",
"W  c #E3D16F",
"Q  c #EBDC71",
"!  c #EADC77",
"~  c #E1D578",
"^  c #2F3699",
"/  c #4D6DF3",
"(  c #8D3A85",
")  c #9D3E8E",
"_  c #A43B81",
"`  c #AE4292",
"'  c #A1489F",
"]  c #B34295",
"[  c #BC4796",
"{  c #BC4599",
"}  c #BD479C",
"|  c #BB4B9A",
" . c #BA4F98",
".. c #B75C99",
"X. c #C9479F",
"o. c #C0569E",
"O. c #D25A90",
"+. c #D56A98",
"@. c #D76D9C",
"#. c #C57793",
"$. c #D57D9A",
"%. c #CA4AA0",
"&. c #CD4BA3",
"*. c #CF4DA5",
"=. c #D149AB",
"-. c #D44DA9",
";. c #D84FAC",
":. c #D95DA5",
">. c #D450A8",
",. c #D454A9",
"<. c #DA52AE",
"1. c #DB53AF",
"2. c #DC54AF",
"3. c #D84EB3",
"4. c #DE4DB0",
"5. c #DD53B1",
"6. c #DD5FB3",
"7. c #E053B3",
"8. c #E054B4",
"9. c #E155B4",
"0. c #E157B5",
"q. c #E25EB6",
"w. c #C569A4",
"e. c #C171A8",
"r. c #D576AE",
"t. c #DD77AC",
"y. c #D37DAE",
"u. c #DB68B1",
"i. c #DF6EB5",
"p. c #D777B0",
"a. c #DB75B4",
"s. c #D87EB2",
"d. c #DD7FB6",
"f. c #E06AB4",
"g. c #E269B7",
"h. c #E365B8",
"j. c #E475BB",
"k. c #E17AB9",
"l. c #E37ABB",
"z. c #E07DB9",
"x. c #BA55C0",
"c. c #709AD1",
"v. c #ACAA94",
"b. c #B9B99D",
"n. c #D9AD88",
"m. c #DAA196",
"M. c #DBAC91",
"N. c #DC8CA4",
"B. c #D480AE",
"V. c #DE87A9",
"C. c #DD8EAF",
"Z. c #DC9AA4",
"A. c #D886B2",
"S. c #DD82B6",
"D. c #DB86B5",
"F. c #DC87B6",
"G. c #D38EB1",
"H. c #DC88B6",
"J. c #DF84B9",
"K. c #D992B5",
"L. c #DC90B7",
"P. c #DF92B8",
"I. c #E28FB4",
"U. c #E182B9",
"Y. c #E383BC",
"T. c #E583BE",
"R. c #E387BD",
"E. c #E484BD",
"W. c #E189BA",
"Q. c #E38BBE",
"!. c #E489BE",
"~. c #E48DBF",
"^. c #E392BF",
"/. c #D2A9B4",
"(. c #DFA9BD",
"). c #E2A5B6",
"_. c #AC88CD",
"`. c #E58BC0",
"'. c #E68DC0",
"]. c #E692C1",
"[. c #E693C1",
"{. c #E694C2",
"}. c #E69EC3",
"|. c #E79FC4",
" X c #E5A7C3",
".X c #E7A2C5",
"XX c #E6A8C4",
"oX c #E7A8C5",
"OX c #E7ADC6",
"+X c #E3B1C1",
"@X c #E9BCCB",
"#X c white",
/* pixels */
"/ / / / / / / / / / / / / / / / / / / / / / / / / / / / / / / / ",
"/ / / / / / / / / / / / / / / / / / / / / / / / / / / / / / / / ",
"/ / / / / / / / / / / / ~ Q E U / / / / / / / / / / / / / / / / ",
"/ / / / / / / / / / / b.! W F G v./ / / / / / / / / / / / / / / ",
"/ / / / / / / / / / / Y R K T T S / / / / / / / / / / / / / / / ",
"/ / / / T T / / / / / C L T T T I / / / / / / / / / / / / / / / ",
"/ / / / T T T / / / D H P T T T V B / / / / / / / / / / / / / / ",
"/ / / / / T T T T T c s a A T Z x l z v T / / / / / / / / / / / ",
"/ / / / / / T T T T w @ - q d y 8 9 0 p T T T / / / / / / / / / ",
"/ / / / / / / / / T T j ; = - , 5 - 4 i T T T T / / / / / / / / ",
"/ / / / / / / / / / / / f o # % # O + : / T T T T / / / / / / / ",
"/ / / / / / / / / / / / / h X .   . + : / / / T T T / / / / / / ",
"/ / / / / / / / / / / / T k > 2 3 r t - 5 / / / T T T / / / / / ",
"/ / / / / / / / / / / T T m e < 6 7 , $ 5 / / / / T T T / / / / ",
"/ / /  Xf.4.4.f./ / T T T T n + = , = = 5 / / / / / T T T / / / ",
"/ / #X#X X X4.4.f.T T T T T b g u T T 5 5 / / / / / / T / / / / ",
"/ _.#X#X#X X X4.4.T T T / / / / T T T T ^ ^ / ^ ^ ^ ^ ^ ^ ^ ^ / ",
"/ D.W.#X#X#X X X4.T T 4.f.f./ / T T T T / ^ ^ ^ / / / / / / ^ ^ ",
"#Xw.U.z.oX#X#X XoXT T 4.;.4.f./ T T T T c./ / / / / / / / / / ^ ",
"^ ^ | z.Y.Q.#X#Xm.T T @.0.3.x.f.T T T T c.c./ / / / / / / / / / ",
"/ / / } i.`.V.n.T T T I.{.f.4.;.J T T T / / / / ^ ^ ^ ^ ^ / / / ",
"/ / / / [ 6.I.T T T #X#X.X{.T.q.O.M T T T / ^ ^ ^ ^ ^ ^ ^ ^ ^ ^ ",
"^ ^ ^ ^ ^ ] 2.k.{.T.OX#X#X@X`.`.l.:.N T T T / / / / / / / / / / ",
"^ ^ #X#X#X#Xo.;.h.~.!.{.#X#X#XoX!.~.l.T T T T / c.c.c.c.c./ / / ",
"^ ^ ^ ^ #X#X#X' -.0.j.{.`.|.#X#X#X}.R.Q.$.T T #.c./ / / / / / / ",
"^ ^ ^ ^ #X#X#X#Xe.%.5.q.T.{.!.OX#X#X#X^.N.T T +.=./ / / / / / / ",
"^ ^ ^ ^ ^ ^ ^ #X#X_ { 1.0.h.T.`.R.OX#X#XM.T T C.a.,./ / / / / / ",
"^ ^ ^ ^ ^ ^ ^ #X#X#X#X) &.5.0.f.T.U.U.).T T T P.S.H.p./ ^ c.^ / ",
"^ ^ ^ ^ ^ ^ ^ ^ #X#X#X#X_ ` *.1.7.f.U.k.t.Z.#X#X#XL.s.A./ c./ / ",
"^ ^ ^ ^ ^ ^ ^ ^ ^ ^ ^ #X#X#X_  .%.;.5.i.U.l.U.+X#X#X#XK.r.^ ^ ^ ",
"^ ^ ^ ^ ^ ^ ^ ^ ^ ^ ^ #X#X#X#X#X_ ..[ %.-.u.d.d.D.).#X#X#X/ / / ",
"^ ^ ^ ^ ^ ^ ^ ^ ^ ^ ^ ^ ^ ^ ^ ^ ^ ^ ^ _ ( f.u.i.i.B.B.G././ / ^ "
};
