/* XPM */
static char *fa52fd05121a4d3eda0bf29a75db607eL6iGNFsg9Lp0MQhf[] = {
/* columns rows colors chars-per-pixel */
"32 32 202 2 ",
"   c #0A0A08",
".  c #140F0F",
"X  c #14120F",
"o  c #181614",
"O  c #191714",
"+  c #1D1B1A",
"@  c #2E2014",
"#  c #25221E",
"$  c #2C231C",
"%  c #362418",
"&  c #1D1F26",
"*  c #2D2B28",
"=  c #3C2E25",
"-  c #3C3733",
";  c #4B3626",
":  c #523826",
">  c #55253C",
",  c #483B37",
"<  c #58483B",
"1  c #645533",
"2  c #79543A",
"3  c #222B54",
"4  c #2C3769",
"5  c #303A69",
"6  c #493C47",
"7  c #413067",
"8  c #584F4C",
"9  c #665545",
"0  c #7C6942",
"q  c #50536C",
"w  c #91613F",
"e  c #B36C46",
"r  c #B66959",
"t  c #B87854",
"y  c #A67A68",
"u  c #C47E5F",
"i  c #C57665",
"p  c #CA617B",
"a  c #978758",
"s  c #B29256",
"d  c #BEA552",
"f  c #B38C6D",
"g  c #B5A976",
"h  c #C5875C",
"j  c #CBA859",
"k  c #D0BB5C",
"l  c #C48A65",
"z  c #CE9367",
"x  c #CC9369",
"c  c #CA9776",
"v  c #D19073",
"b  c #D19D74",
"n  c #CAA666",
"m  c #D5A67D",
"M  c #D6A87B",
"N  c #DBC765",
"B  c #E8D76F",
"V  c #E8DA76",
"C  c #2E3597",
"Z  c #2F3699",
"A  c #343697",
"S  c #3C3694",
"D  c #333699",
"F  c #31399E",
"G  c #333EA5",
"H  c #4B368E",
"J  c #483694",
"K  c #4E3895",
"L  c #573993",
"P  c #6B398C",
"I  c #6A3A91",
"U  c #3A4A92",
"Y  c #3846B3",
"T  c #555282",
"R  c #7B4796",
"E  c #635490",
"W  c #5E54A4",
"Q  c #5866B3",
"!  c #7966A6",
"~  c #7572B2",
"^  c #3C4EC1",
"/  c #425AD3",
"(  c #5263C8",
")  c #4361D9",
"_  c #5868DA",
"`  c #5D74D9",
"'  c #6C72C9",
"]  c #7577C2",
"[  c #6E70D2",
"{  c #6675DC",
"}  c #697ADD",
"|  c #4762E1",
" . c #4A67E9",
".. c #4B6AEB",
"X. c #566DE7",
"o. c #536EEC",
"O. c #5772E6",
"+. c #5C73E4",
"@. c #5570EC",
"#. c #5973EA",
"$. c #4D6DF3",
"%. c #516EF1",
"&. c #5673F0",
"*. c #6267E6",
"=. c #7564E0",
"-. c #6777E4",
";. c #883C8C",
":. c #893D91",
">. c #973F93",
",. c #A13D8F",
"<. c #8A4689",
"1. c #8F538E",
"2. c #A94297",
"3. c #B6469A",
"4. c #B153B2",
"5. c #8174A7",
"6. c #BA60B6",
"7. c #C75B9F",
"8. c #D56897",
"9. c #CB779A",
"0. c #C34AA3",
"q. c #CE4CA4",
"w. c #D74DAB",
"e. c #D755A7",
"r. c #DD52AE",
"t. c #DB4EB2",
"y. c #DF58B2",
"u. c #E14FB1",
"i. c #E155B4",
"p. c #E15EB5",
"a. c #D678AD",
"s. c #DE6BB3",
"d. c #DB77B6",
"f. c #DC7FB5",
"g. c #E16AB7",
"h. c #E366B8",
"j. c #E373B9",
"k. c #E27CB9",
"l. c #A55ACB",
"z. c #9869C9",
"x. c #9167D4",
"c. c #A470CC",
"v. c #7686C9",
"b. c #7F90CA",
"n. c #7B86D1",
"m. c #AD8989",
"M. c #B79286",
"N. c #A88A95",
"B. c #AF989A",
"V. c #B5A699",
"C. c #B6B69D",
"Z. c #9D8FAF",
"A. c #908EB7",
"S. c #968EBB",
"D. c #A994A6",
"F. c #A292AD",
"G. c #B59EA7",
"H. c #CB938D",
"J. c #C39B89",
"K. c #CCA18D",
"L. c #D4AA84",
"P. c #D9AB84",
"I. c #D7A888",
"U. c #D5AC8B",
"Y. c #D7B08B",
"T. c #DCB18B",
"R. c #C4A295",
"E. c #C8A593",
"W. c #DBA994",
"Q. c #DB89AB",
"!. c #DD9BAA",
"~. c #DC85B4",
"^. c #CD98B9",
"/. c #DC91B7",
"(. c #E28FB4",
"). c #E383BC",
"_. c #E48ABE",
"`. c #E492BD",
"'. c #D9AAB8",
"]. c #D0BBB1",
"[. c #E1AEB4",
"{. c #E6D1BD",
"}. c #8E8CC3",
"|. c #8083C9",
" X c #8F96CE",
".X c #B489C7",
"XX c #C590CA",
"oX c #E68CC0",
"OX c #E693C1",
"+X c #E69DC3",
"@X c #E7A8C5",
"#X c #E7AAC5",
"$X c #E5B9C5",
"%X c #DFC0C1",
"&X c #DFD5C5",
"*X c #E7C9C9",
"=X c #E7D7CA",
"-X c #EBCFD0",
";X c #EBD3D0",
":X c #EBDCD1",
">X c #ECE4D3",
",X c #ECE8D5",
/* pixels */
"$.$.$.$.$.$.$.$.$.$.$.$.$.$.$.$.v.C.C.|...$.$.$.$.$.$.$.$.$.$.$.",
"$.$.$.$.$.$.$.$.$.$.$.$.$.$.$.v.N N V V  X..$.$.$.$.$.$.$.$.$.$.",
"$.$.$.$.$.$.$.$.$.$.$.$.$.$.$.V.j j V V C.O.$.$.$.$.$.$.$.$.$.$.",
"$.$.$.$.$.$.$.$.$.$.$.$.$.$.` g M P.n N C.O.$.$.$.$.O.O.%.$.$.$.",
"$.$.$.$.$.$.$.$.$.$.$.$.$.$.Z.n U.Y.L.x d v.$.$.$.#.F.F.+.$.$.$.",
"$.$.$.$.$.$.$.$.$.$.$.$...Q a s m M T.n k g ` %.#.S.U.A.#.$.$.$.",
"$.$.$.$.$.$.$.%.$.$.@.Q q 8 8 8 a b f 1 1 0 B.G.E.U.E.n.$.$.$.$.",
"$.$.$.$.$.$.$.$.$.n.G.f 8 - - - , 2 ; O X ; x c m.] } } $.$.$.$.",
"..$.$.$.$.$.$.$.}.Y.P.c > * & # & + + & 4 T ~ [ @.$.$.$.$.$.$.$.",
"%.$.$.$.$.$...}.I.c Z.] ( 7 X o O o X 3 ..$.%.$.$.$.$.$.$.$.$.$.",
"$.$.$.$.$.$.}.L.m.[ .. .E 6         3 ^ $.$.$.$.$.$.$.$.$.$.$.$.",
"$.$.$.$.$.}.I.N.O.$.$.U $ : ; % % @ 8 ~ @.$.$.$.$.$.$.$.$.$.$.$.",
"$.$.$.#.F.T.E.+.$.$.$.5 o # = ; $ ; t b V.n.%.$.$.$.$.$.$.$.$.$.",
"$.$.$.|.U.R.Z.#.$.$...4 o + & o X w x m T.Y.}.&.$.$.$.$.$.$.$.$.",
"$.$.$.} D.} o.%.$.$.$.U $ < 9 , Z y f c n L.M.@.$.$.-.x.c. X@.$.",
"$.$.$.$.&.$.$.$.$.$.$.( a T.T.c  .o.@.' 9.h y =.x.XXd.~.*X*X.X_ ",
"$.$.$.$.$.$.$.%.$.$.$.#.R.P.T.J.X.$.$.$.5.e r d._.).#X:X*X(.~.W ",
"$.$.%.$.$.$.$.$.$.$.$.$.D.P.T.K.O...=.l.q.e t `.+X*X:X#Xk.).2.A ",
"$.$.$.$.$.$.$.$.$.$.$.$.5.P.P.K.l.l.t.y.8.e i W.{.*X_.).).3.K F ",
"$.$.$.$.$.$.$.$.$.$.$.[ J.m v v r.t.s.OX!.l h M T.Q._.j.3.K Z Z ",
"$.$.$.$.$.$.$.$.$.$.-.M.b h i 8.p.).OX@X-X>X[.H.I.`.s.3.K Z Z Z ",
"$.$.$.$.$.$.$.$.$.@.B.x u p e.k._.`.$X>X>X#XoXOXk.t.,.K F Z Z Z ",
"$.$.%.$.$.$.$.%.{ m.x i 8.k.`._.#X:X,X*XOXoXoXh.t.2.J Z Z Z Z Z ",
"$.$.$.$.$.$...=.9.z l 9._._.`.;X,X;X+X_.OXj.i.u.>.J Z Z Z Z Z Z ",
"$.$.%.$.$.%.l.q.8.b b Q.`.*X,X:X@X_.OX).p.i.q.:.S C Z Z Z C F C ",
"$.$.$.%.*.4.w.s.Q.L.P.W.=X:X#X)._._.h.i.t.3.I D C C Z Z F C Z C ",
"$.$.$.*.6.a.~.f./.W.m P.[.k.).).h.i.u.q.>.L Z C C Z Z Z F Z Z Z ",
"$.$.@..X~.f./.$X=X{.!.a.k.).g.y.i.q.2.P A C Z F Z Z Z Z Z Z Z Z ",
"$.%.z.a./.*X&X=X#X~.k.).g.i.t.0.<.I D Z Z Z Z F F C Z Z Z Z Z Z ",
"$.-.^.].=X].'./.~.f.s.w.q.,.:.K D F Z Z F Y / / | ^ G F Z Z A C ",
"$. X].].^.Q.a.a.7.3.,.;.P H C Z Z Z F Y / $.%.$.$.$. .| / ^ Y Y ",
" .{ ! R 1.1.<.<.R L S A Z A F F G ^ / $.$.$.$.$.$.$.$.$.$.$.$.$."
};
