/* XPM */
static char *_fd0ee89a8284df9bf16a2e4135415689ekHJiRBZfXE17Fk[] = {
/* columns rows colors chars-per-pixel */
"32 32 174 2 ",
"   c None",
".  c #0C0B0A",
"X  c #12100F",
"o  c #151312",
"O  c #191715",
"+  c #1A1917",
"@  c #1D1B1A",
"#  c #221D1A",
"$  c #25221E",
"%  c #2C231C",
"&  c #2E2015",
"*  c #362418",
"=  c #3A192F",
"-  c #252320",
";  c #3C2E25",
":  c #35322F",
">  c #3C3834",
",  c #483527",
"<  c #503624",
"1  c #593D2A",
"2  c #552337",
"3  c #4C3C31",
"4  c #554030",
"5  c #58493D",
"6  c #645534",
"7  c #79543A",
"8  c #6E3E40",
"9  c #514C47",
"0  c #59544E",
"q  c #605448",
"w  c #6B5543",
"e  c #7C6940",
"r  c #8B326E",
"t  c #8E3D72",
"y  c #943775",
"u  c #9A397A",
"i  c #A13B7F",
"p  c #926242",
"a  c #B36E46",
"s  c #B46A4C",
"d  c #B9754F",
"f  c #B86856",
"g  c #B87855",
"h  c #97477A",
"j  c #8B5773",
"k  c #96597B",
"l  c #A67F60",
"z  c #C47E5F",
"x  c #C47665",
"c  c #CA617B",
"v  c #9E894B",
"b  c #B29257",
"n  c #AD8565",
"m  c #B18461",
"M  c #B69273",
"N  c #C2845A",
"B  c #C6895F",
"V  c #C2A74C",
"C  c #C8A65A",
"Z  c #CEB85C",
"A  c #C88D64",
"S  c #C48A65",
"D  c #CB936B",
"F  c #CE986F",
"G  c #C8936B",
"H  c #D2996F",
"J  c #CF8677",
"K  c #CF9B73",
"L  c #D19D74",
"P  c #CAA564",
"I  c #CCA769",
"U  c #D4A57D",
"Y  c #D4AA7D",
"T  c #D2A075",
"R  c #D7C267",
"E  c #DAC767",
"W  c #E3D16F",
"Q  c #EADB73",
"!  c #E7D878",
"~  c #E6D773",
"^  c #A23B80",
"/  c #AD3E89",
"(  c #AA3E87",
")  c #B2418E",
"_  c #BB4494",
"`  c #B54290",
"'  c #BE5799",
"]  c #C14699",
"[  c #C9479F",
"{  c #C14C9A",
"}  c #D35893",
"|  c #D2728B",
" . c #D66C9A",
".. c #D36294",
"X. c #D57D9A",
"o. c #CD4BA3",
"O. c #D54CAA",
"+. c #D44AA7",
"@. c #C65FA0",
"#. c #D95DA4",
"$. c #D452A9",
"%. c #DB53AE",
"&. c #D25DA8",
"*. c #DE4EB1",
"=. c #DD53B1",
"-. c #DD5FB3",
";. c #E055B4",
":. c #E15EB5",
">. c #D26DAA",
",. c #CF79AA",
"<. c #D779AD",
"1. c #DD6BB3",
"2. c #D777B0",
"3. c #DD72B3",
"4. c #DC7FB5",
"5. c #DF7AB8",
"6. c #E16AB7",
"7. c #E366B8",
"8. c #E078B7",
"9. c #E17CB9",
"0. c #E475BB",
"q. c #D48A89",
"w. c #D5A982",
"e. c #D9AB84",
"r. c #D7A788",
"t. c #DAAF89",
"y. c #D7A789",
"u. c #DCB18B",
"i. c #D7B08B",
"p. c #DBAD93",
"a. c #DAA196",
"s. c #DE87A9",
"d. c #DA89AB",
"f. c #DD9BAA",
"g. c #DB85B5",
"h. c #D58EB2",
"j. c #DE86B8",
"k. c #DB91B6",
"l. c #DF95B9",
"z. c #D79BB5",
"x. c #E383BC",
"c. c #E48ABE",
"v. c #E28FB4",
"b. c #E492BE",
"n. c #E399BF",
"m. c #C5B7AA",
"M. c #D9A9B9",
"N. c #CDB9B2",
"B. c #E2A5B6",
"V. c #E0B6B1",
"C. c #DCC3BF",
"Z. c #E4CDBB",
"A. c #E7D4BF",
"S. c #E68CC0",
"D. c #E693C1",
"F. c #E69DC3",
"G. c #E6A5C4",
"H. c #E7AAC5",
"J. c #E8AEC8",
"K. c #E5B9C5",
"L. c #DFC0C1",
"P. c #DFD5C5",
"I. c #E7C6C8",
"U. c #E9C7CD",
"Y. c #E9CECC",
"T. c #E0CAC3",
"R. c #E6D3C9",
"E. c #EADCCD",
"W. c #E7D7CB",
"Q. c #EBCFD0",
"!. c #EBDCD1",
"~. c #EBD3D0",
"^. c #ECE4D3",
"/. c #ECE8D5",
/* pixels */
"                                  Q Q                           ",
"                                R E Q Q                         ",
"                              E C C W Q !                       ",
"                              C Y Y P R R                       ",
"                              I i.u.r.P V           w.U         ",
"                            v b w.U t.P Z Z       u.u.U         ",
"                        9 0 0 0 n K m 6 6 e Y t.e.e.e.          ",
"                    u.M 9 > > : 3 7 , @ O 3 G G D               ",
"                u.t.e.K 4 + # - $ @ @ O X 1                     ",
"              t.e.L A     = o O @ O X X                         ",
"              w.A       8 2 . . . . .                           ",
"            e.D         - 1 < * * # ,                           ",
"        u.u.e.        # + $ ; ; & < d K u.                      ",
"        e.e.U         # @ @ - + o p H Y u.u.u.                  ",
"        U             # - 5 w , # p A F U e.K           3.      ",
"                        n e.t.G         N N d     F.8.j.I.R.l.  ",
"                        U e.u.U         s a f 8.c.9.H.E.I.j.g.  ",
"                        T e.u.e.      *.} s g b.F.Q.!.G.9.x.'   ",
"                          U t.w.#.*.*.;. .s z a.A.Y.c.x.9.{     ",
"                        L T T J %.;.6.D.f.G N U e.s.S.8.]       ",
"                      U L B x } ;.x.D.G.Q.^.V.q.p.c.1._         ",
"                    L H z c #.8.c.b.K./.^.J.x.D.0.;./           ",
"                  D A x ..9.c.c.H.!./.U.D.S.S.7.%.`             ",
"                | D S X.c.c.F.Q./.~.F.c.D.0.;.*.)               ",
"            +.+. .L L s.b.U.^.E.G.S.D.x.:.;.o./                 ",
"          +.$.3.d.r.e.t.E.!.J.x.S.c.7.;.%.] ^                   ",
"        &.<.j.g.v.p.Y e.B.x.x.x.7.;.;.o./                       ",
"      k.g.4.k.K.W.Z.f.<.5.x.1.;.%.+._ ^                         ",
"    >.,.h.V.W.W.H.j.4.x.8.%.O.o.` ^                             ",
"    z.C.R.P.M.g.4.x.1.+.[ _ ( u                                 ",
"  m.m.M.z.h.g.,.@._ / ^ y                                       ",
"    j h j ^ h r r                                               "
};
