/* XPM */
static char *a98266a433c14fe4ec94264449567275vyG2NwAjK8GrtBY2[] = {
/* columns rows colors chars-per-pixel */
"32 32 4 1 ",
"  c #2F3699",
". c #4D6DF3",
"X c #709AD1",
"o c white",
/* pixels */
"................................",
"................................",
"................................",
"................................",
"................................",
"................................",
"................................",
".................       ........",
"...............   XXX    .......",
".............    XXXXXXX .......",
"............    XXooooXXo.......",
"............   XXXoooooooo......",
"...........    XXooooooooo......",
"..........    XXooooooooo ......",
".........    XXXooooooooo ......",
".......      XXooooo oooo ......",
"......     XXXXooooo oo  .......",
".....     .XXXXooooo X  ........",
"....      .XXXXoooo  X .........",
"....     ..XXXXoooo  X .........",
"...     ...XXXXoooo  XX ........",
"...    ....XXXXoooo   X   ......",
"..     ....XXXXoooo   XX   .....",
"      .....XXXXooooo   XX      .",
"     .......XXXXXoooo   XXX     ",
"     .......XXXXXooooo     XXX  ",
"    .........XXXXXXoooo      XXX",
"   ..........XXXXXXXoooooo      ",
"  ............XXXXXXXooooooo    ",
"  .............XXXXXXXooooooooo ",
" ...............XXXXXXXXXooooooo",
" .................XXXXXXXXoooooo"
};
