/* XPM */
static char *_1956a3c2915453be8a0e129a8055670NgH0PzyDA4bqaQuR[] = {
/* columns rows colors chars-per-pixel */
"32 32 225 2 ",
"   c #090108",
".  c #12060A",
"X  c #140915",
"o  c #1E1217",
"O  c #19100B",
"+  c #211419",
"@  c #28281E",
"#  c #1C1C24",
"$  c #271B25",
"%  c #1E2226",
"&  c #1D2935",
"*  c #2E2629",
"=  c #352928",
"-  c #282935",
";  c #362D37",
":  c #24323B",
">  c #2B343A",
",  c #2A383A",
"<  c #3F3234",
"1  c #39353D",
"2  c #45393D",
"3  c #473A3B",
"4  c #44463B",
"5  c #1F354A",
"6  c #273A4C",
"7  c #353E43",
"8  c #3A3942",
"9  c #2C3D52",
"0  c #433C44",
"q  c #473948",
"w  c #2E4446",
"e  c #33434C",
"r  c #3F494C",
"t  c #3A4246",
"y  c #2C4454",
"u  c #394754",
"i  c #3B5459",
"p  c #39575B",
"a  c #3A636B",
"s  c #3C6470",
"d  c #4D444C",
"f  c #4C484F",
"g  c #464849",
"h  c #53474C",
"j  c #54494D",
"k  c #594B4B",
"l  c #40514B",
"z  c #5C514D",
"x  c #4A4C54",
"c  c #4C4D5B",
"v  c #434853",
"b  c #554D53",
"n  c #584D5A",
"m  c #4A5359",
"M  c #435C5C",
"N  c #4A5557",
"B  c #54525C",
"V  c #5C535D",
"C  c #57585B",
"Z  c #61555B",
"A  c #655A5D",
"S  c #675A56",
"D  c #495462",
"F  c #475965",
"G  c #5E5462",
"H  c #5B5D61",
"J  c #545862",
"K  c #494E61",
"L  c #635E64",
"P  c #685F64",
"I  c #655C6A",
"U  c #4B6468",
"Y  c #5D6366",
"T  c #5E6168",
"R  c #54676A",
"E  c #5F726E",
"W  c #526971",
"Q  c #5E6C73",
"!  c #5B7174",
"~  c #59737B",
"^  c #456B76",
"/  c #65636A",
"(  c #6C656C",
")  c #6F696F",
"_  c #666265",
"`  c #786B6B",
"'  c #64706E",
"]  c #6B6974",
"[  c #776D72",
"{  c #756A74",
"}  c #67777A",
"|  c #73737D",
" . c #757578",
".. c #827376",
"X. c #67807D",
"o. c #687B85",
"O. c #7A7D8B",
"+. c #797B85",
"@. c #697F97",
"#. c #857A83",
"$. c #6D8387",
"%. c #71828C",
"&. c #7D838B",
"*. c #798688",
"=. c #68869B",
"-. c #728394",
";. c #7C8692",
":. c #7B8B93",
">. c #7B8C9A",
",. c #768894",
"<. c #7A9495",
"1. c #6C8BA5",
"2. c #7F9FB6",
"3. c #83838B",
"4. c #8A838B",
"5. c #838C8C",
"6. c #8A8586",
"7. c #928889",
"8. c #98968C",
"9. c #848692",
"0. c #838B95",
"q. c #8A8B94",
"w. c #8A8896",
"e. c #958B97",
"r. c #869293",
"t. c #84959C",
"y. c #8B939D",
"u. c #8C9599",
"i. c #979599",
"p. c #A49999",
"a. c #91A19E",
"s. c #A7A79B",
"d. c #8696A1",
"f. c #8A99A4",
"g. c #8898A7",
"h. c #979CA7",
"j. c #889CB0",
"k. c #839FB7",
"l. c #A89CA5",
"z. c #8EA4A5",
"x. c #99A4A4",
"c. c #97A7AB",
"v. c #8FA7B1",
"b. c #9CABB4",
"n. c #99B0B7",
"m. c #AEA3A5",
"M. c #A6A6AA",
"N. c #B2A6AD",
"B. c #B0A1A4",
"V. c #A4A7B0",
"C. c #A6ADB8",
"Z. c #A3B0B4",
"A. c #A7B6BA",
"S. c #BEB1B3",
"D. c #B3B9BA",
"F. c #BBB0AA",
"G. c #C5B5B5",
"H. c #ADC3BD",
"J. c #B3C4BE",
"K. c #A5B5C3",
"L. c #A7BCC5",
"P. c #B6BEC9",
"I. c #BBC4CF",
"U. c #BCCCCA",
"Y. c #B5C8C6",
"T. c #BCD1CA",
"R. c #BDC6D0",
"E. c #BDD7DB",
"W. c #ACC9D1",
"Q. c #9ECEE5",
"!. c #ABCEE1",
"~. c #A5D4E4",
"^. c #ABD5E3",
"/. c #ABDCEA",
"(. c #A8D6EC",
"). c #B3D5E3",
"_. c #B8D5E9",
"`. c #BADEF4",
"'. c #ABDEF3",
"]. c #B5E4FA",
"[. c #BBE7F7",
"{. c #ADE2F4",
"}. c #C0D1CB",
"|. c #C2CCD7",
" X c #C5D3D2",
".X c #C8DAD8",
"XX c #D4DCDE",
"oX c #CBE2DE",
"OX c #CADCE7",
"+X c #D6D6E1",
"@X c #C4E4ED",
"#X c #D3E6EC",
"$X c #D7E4E3",
"%X c #C4EEFF",
"&X c #C8EBFF",
"*X c #C6E3F6",
"=X c #D9ECF4",
"-X c #C5F1FE",
";X c #D7F4FB",
":X c #E8E8EA",
">X c #F1E7ED",
",X c #F2ECEC",
"<X c #FAEEEE",
"1X c #F5F1EE",
"2X c #F8F3EF",
"3X c #EBEDF3",
"4X c #F6EEF5",
"5X c #EDF3F1",
"6X c #EEFAFF",
"7X c #E5F6FD",
"8X c #F4F4F4",
"9X c #FCF5F4",
"0X c #F6FAF5",
"qX c #FBFAF6",
"wX c #F4F4FB",
"eX c #FAF6FC",
"rX c #F4FCFE",
"tX c #FEFBFF",
"yX c #FBFFFF",
"uX c #F9FEFE",
"iX c #FFFCFC",
"pX c #FFFDFF",
"aX c #FFFFFF",
"sX c #FDFEFE",
"dX c #FEFDFC",
/* pixels */
"uXrXuXrXuXrXtXaXuXaXuXuXaXuXdXdXdXqXdXdXaXaXaXaXtXeXaXaX8XaXdX9X",
"uXuXwXwXaXaXaXwXtXtXtXuXdXdXqXqXqXqXqXqXqXaXtXtXtXaXaXaXqXqXdX0X",
"8XaXaXaXeX3XaXtXtXtXtXaXqXdXqXdXqXqXdXdXtXtXtXtXeXaXaXaXaXdXdXdX",
"aX8XqXaXaXtXaXeXtXtXtXtXdXdXdXdXdXdXdXdXaXtXaXaXtXwXwXtX0X2X2XdX",
"dX9XdX,X9XeXtXtXtXtXtXaXtXqXtXtXdXdXaXuXaXaXaXaXaXwXaXaXuXaXaX8X",
"2XdX1X7.( L / / H I L P P L L L Y _ Y _ Y T H Y / T _ B H M.0XaX",
"dXdX5. .#.u.w.&.w.y.w.w.w.q.w.4.5.5.q.q.q.0.w.q.&.u.y.q.3.5.D.rX",
"dX:X% x J D D D D D D D c c c c m m m m m m m m C J g m m % C aX",
"dX3X: : e 9 6 5 y 6 9 9 9 - K O.Q : t u N w r , : t 7 t ' R H rX",
"6X6X: o.j.=.=.2.1.1.2.@.j.-.u o.D t.:.e r l <.$.r.} 0.g | i.B Y.",
"rXb.>.*X`.&X].[.&X`.&X_.*Xk.=.L.e =X#XR R %.$X$X X X Xl M.XXY x.",
"6XF W._.!.[.].Q.(.(.(.[.*XF K.<.n.#XE.U E <.E.H.Y..X Xg Z.XX*.r.",
"rX$.L.).[.!.].'.'.].~.).@Xy H.w o.<.OX~ l X.oXH.J.J.J.C a.}.5.<.",
"7XU v.@X^.^.~.{.'.~./.W.;XM z.E p 5 n.o.X.X.T.T.T.T.}.l A.5X' a.",
"rX! W.=X).[./.].[./.[.@XoXE E w ~ L.;Xp M <.oXJ.J.T.J.N a.$XX.8.",
"D.R R i ~ p ^ s s a U ^ M $.A.w U W W w n.X.X.a.oXJ..Xa.} T.Y.Y ",
"8.C D.r.y.C.g.j.<.z.:.b.t.b.K.b.<.f.f.>.W.W 9 Q L.K.K.h.c n.L.t ",
"s.4 [ 3.#.@.#.#.q.u.} R *.t.>.,.:.t.:.d.-.u F >.>.-.o.o.& -.h.> ",
"8.@ * 3.+XP.+X|.+Xx., C 7 R.P.I.|.A..XL.P.c K.|.P.|.OXK.] |.R.v ",
"8.8.l.I #.K G v T 3.C +X7 C.y.C.l.N.V.h.b.v 0.f.d.c.h.O.x h.V.> ",
"8.h _ 1 +.$ ; - x  .- / 1 | +.9./ x b ] 3.- | ;.9.O.| 1 # +.4.1 ",
"F.O z ..l.{ I G e.e.C C ( y.h.] V / ) 0 e.8 3.w.i.| c | _ b L ; ",
"S ` S.7.q G L I V ( M.i.x n V V N.* h l.b X B G f n l.d 0 N.Z o ",
"= S 0 * q #.( e.V * j j #.#.q I 0 ..` 2 6.P j b V e.< [ ` 3 p.3 ",
"= z P q q l.e.#.8 2 h A [ #.L X O F.B.  Z [ [ [ f . + N.N.. k G.",
"s.B.p.Z     X { N.p.l.l.) +   $ o 3 k 7.tXtXeXaXtXb . h 3 6.9X<X",
"qXdXdX>X#.I #.tXtX9XqXdX>Xe.n h S S 7.>XtX9X>XaX4X:XP d p.<X9XqX",
"qX1X,XdXeXeXwXtXtXaX9X1XaXtXdXaX9X<XqXdX4XaXaX8XaXaXaXqX>XdXdX9X",
"2XdXaXaXeXtXeXtXtXaXdXdXdX8X:XaXaXdX9XdX0XaXaXtXaX8XaXdXdX1X2XdX",
"dXaX8XrXeXtXaXeXaXqX,X0XdXaXtXaX,XdXdXdXaX8X0XuXrXuXuX5XdXdXdX9X",
"0XdXaXuXtXwXtXaXuXdXdXdX1XqXaXdXdXdXdXqXuXuXuXrXuXuXdX5XdXdXqX0X",
"qXdXrXtXuXrXaXeXaX2XdXdXqX0XaXaXdXdX0XdX0XuXrXuXrXrX5XdX0X0XdXdX"
};
