/* XPM */
static char *wave_spr31680346673[] = {
/* columns rows colors chars-per-pixel */
"32 32 4 1 ",
"  c #2F3699",
". c #4D6DF3",
"X c #709AD1",
"o c white",
/* pixels */
"................................",
"................................",
"................................",
"................................",
"................................",
"................................",
"................................",
"................................",
"................................",
"................................",
"................................",
"................................",
"................................",
"................................",
"................................",
".......     ....................",
"......   oo.  ..................",
".....    ..ooo .............    ",
"....     .....o ...........  oo ",
"....     ..... ooo.......   ....",
"...     .........          .....",
"...    ...XXXX......  ..........",
"..     ...XXX.XX...      . ... .",
"      ...XX.....XX.....XXX.   . ",
"XXXXX.XXXXXX.....XX..    ..... o",
".......X...Xoooo..XX..  ...     ",
"XXXXX......ooooooo.XXX. ......  ",
"....XX...XoXXXX..oo...XX..    oo",
".XXX.....oo....XXXoo.....   ooo.",
" ..XXX. oo  .......oo....ooooo  ",
"...  .oo   .........oooooooooo  ",
"...      .............o..o      "
};
