/* XPM */
static char *pixil_frame_0__9_1680302319[] = {
/* columns rows colors chars-per-pixel */
"32 32 4 1 ",
"  c #2F3699",
". c #4D6DF3",
"X c #709AD1",
"o c white",
/* pixels */
"................................",
"................................",
"................................",
"................................",
"................................",
"................................",
"................................",
"................................",
"................................",
"................................",
"................................",
"................................",
"................................",
"................oooo............",
".............   ...o............",
"...........   .X ..ooo..........",
".        .  ..XX  ...ooo........",
"........   .XXXX.  ....oo.......",
"...........XXXXXX.   ...oooooooo",
"..........XX..XXX...            ",
"...     .......XXXXX............",
"          .  ..XXXXXXXXXXXXX....",
".........................       ",
"...XXXXX.................ooooo  ",
".......XXXXX.       ..... oo    ",
"...........X......     ooooo    ",
"...........XXXXX.....  oo       ",
".   .. ..........    oooo       ",
"...............    ooo..        ",
"                ooooo           ",
"...  ...   .ooooooooo           ",
"...                             "
};
