/* XPM */
static char *_154d34ddda14d5aa5ad880879481512E4M78tW69RnpG0Vs[] = {
/* columns rows colors chars-per-pixel */
"32 32 2 1 ",
"  c #2F3699",
". c #4D6DF3",
/* pixels */
"................................",
"................................",
"................................",
"................................",
"................................",
"................................",
"................................",
"................................",
"................................",
"................................",
"................................",
"...    ........   ..............",
".  ...  ...     ........ .......",
".......    ..........     ......",
"...................   ... ......",
"....   ..........   .....   ....",
".   .. .....................    ",
"......        ..................",
"............. .. ...............",
".............     ..............",
".................. .............",
"...................    ..      .",
"..........  .......           ..",
"........       ... .......   ...",
"...               .........  ...",
"             ............  .....",
"           ........  ...     ...",
"          .......    ... ..    .",
"        ......       .....    ..",
"      ..........         ....   ",
"       .......            ......",
"   .........                ...."
};
