/* XPM */
static char *wave_spr21680346672[] = {
/* columns rows colors chars-per-pixel */
"32 32 4 1 ",
"  c #2F3699",
". c #4D6DF3",
"X c #709AD1",
"o c white",
/* pixels */
"................................",
"................................",
"................................",
"................................",
"................................",
"................................",
"................................",
"................................",
"................................",
"................................",
"................................",
"................................",
"................................",
"................................",
"......................     .....",
"   ..................  .oo   ...",
"oo.  ...............  ...ooo   .",
"..ooo ....   ......  .......oo. ",
".....o ....XX      ....X......o ",
"..... ooo.XX..XXXX....XX......oo",
"........  .....XXXXXXX.XX.......",
".XXXXXX....  .XXX.XXXXXXXXXXXXX.",
".XXX...X........X..  .XXXXX...  ",
"oooXXXXXX........X.. ..XXXXX..oo",
"ooooX.XXXXXX.   ..X..    ..... o",
"...o...X...X.......X...     oooo",
"....o.XXX..XXXXXXX........  oo  ",
".....oo..XXXXXX...X...    oooo  ",
".......o.......XXX...   ooo..   ",
"   ..     .     .....ooooo      ",
"... .... . .oooo.....ooooo      ",
"...    ...                      "
};
