/* XPM */
static char *pixil_frame_0__8_1680299224[] = {
/* columns rows colors chars-per-pixel */
"32 32 3 1 ",
"  c #2F3699",
". c #4D6DF3",
"X c white",
/* pixels */
"................................",
"................................",
"................................",
"................................",
"................................",
"................................",
"................................",
"................................",
"................................",
"................................",
"................................",
"................................",
"..........................XXXX..",
".......XXXXXX...........XX......",
".....XX.....XX.....XXXXXX.......",
"...XXX.......XXX..XXX........   ",
"..XX...........XXXX......XXXXX..",
".XX......     .........XX.   XXX",
".......   ...   .....XX    .....",
"...............   ....  ........",
"...     .........      .........",
"          .  ...................",
"         .    ..............    ",
" XXXXXX         .........   ..  ",
"........XXXX        ..........  ",
"...........XX             ......",
".............. XXXX       .  ...",
".      ...........XXX         ..",
".....  ..............XXX     ...",
"              ............ .....",
"...          .     .............",
"............       ............."
};
