/* XPM */
static char *_507d88e89d54999b041f43da89a2dddAWFvmm40dbCLFWeu[] = {
/* columns rows colors chars-per-pixel */
"32 32 87 1 ",
"  c None",
". c #134D9A",
"X c #134E9A",
"o c #134F9A",
"O c #134F9B",
"+ c #13549E",
"@ c #13559E",
"# c #13559F",
"$ c #13569F",
"% c #135BA3",
"& c #135CA3",
"* c #135DA4",
"= c #1463A8",
"- c #147CB9",
"; c #147DB9",
": c #1582BD",
"> c #1583BD",
", c #1583BE",
"< c #1584BE",
"1 c #1589C2",
"2 c #158AC2",
"3 c #158AC3",
"4 c #158BC3",
"5 c #158FC6",
"6 c #1590C6",
"7 c #1590C7",
"8 c #1591C7",
"9 c #1592C7",
"0 c #1591C8",
"q c #1592C8",
"w c #1594CB",
"e c #1594CC",
"r c #1595CC",
"t c #1697CF",
"y c #1697D0",
"u c #1698D0",
"i c #1698D1",
"p c #169AD4",
"a c #169BD4",
"s c #169BD5",
"d c #17A6E4",
"f c #17A6E5",
"g c #17A9E9",
"h c #17AAE9",
"j c #17AAEA",
"k c #18ACED",
"l c #18ADED",
"z c #18ADEE",
"x c #17AFF2",
"c c #18AFF1",
"v c #17B0F2",
"b c #18B0F1",
"n c #18B0F2",
"m c #19B0F2",
"M c #19B1F2",
"N c #1AB1F2",
"B c #1BB1F2",
"V c #22B5F2",
"C c #23B6F2",
"Z c #24B6F2",
"A c #25B7F2",
"S c #26B7F2",
"D c #26B8F2",
"F c #27B8F2",
"G c #28B8F2",
"H c #2EBBF2",
"J c #2FBCF2",
"K c #30BCF2",
"L c #30BDF2",
"P c #3BC2F1",
"I c #63D7F1",
"U c #6BDBF1",
"Y c #6DDCF0",
"T c #70DDF0",
"R c #70DEF0",
"E c #71DEF0",
"W c #72DFF0",
"Q c #79E2F0",
"! c #7AE3F0",
"~ c #7BE3F0",
"^ c #7CE4F0",
"/ c #7DE4F0",
"( c #7FE5F0",
") c #87EAF0",
"_ c #88EAF0",
"` c #89EAF0",
"' c #89EBF0",
/* pixels */
"                                ",
"                                ",
"                                ",
"                                ",
"                                ",
"                                ",
"         NFZZNx                 ",
"       FZLY~YLZN                ",
"     NLE~~   ~YZN               ",
"   NZKE__                       ",
"  vVI/)__                       ",
" xNNL)__                        ",
"kNvZT)__                        ",
"ukvF^'_                         ",
"ukvVT')                         ",
"jxvNL^'                         ",
"ujvvVE__                        ",
"qskxNL/'                        ",
"wfxNvVY__                       ",
"9yjvNNJE_                       ",
"9qehNvvHE!                      ",
"95qskxNcCJU                     ",
"99efkNnnnnCnnnn                 ",
"59qeuhcnnnnnnnnnNxNxNxNxxN      ",
"q95q9qujxcckkNvvNvvvnvvNvNNx    ",
"15995qqyfsfyyjkkxxNkNkkkxkvkNxxN",
"*:1959qqqqq99qeyjkjsfyeyfsfsjkxk",
"O+*<q9q5qqq959qqwwwqeq59wqw9wufu",
"...&:351115q11599999511191599qwq",
"oo..+*;*+%::**1q1199:%%%-=:59115",
".o...O++.o%+o$::%%::%o.o+o%::%*:",
"o....O.O....oo$$oo$$o.oooo+$$oo$"
};
